<svg xmlns="http://www.w3.org/2000/svg" version="1.1" xmlns:xlink="http://www.w3.org/1999/xlink" xmlns:svgjs="http://svgjs.dev/svgjs" width="475.80837595891717" height="479.2408891008463"><svg version="1.1" xmlns="http://www.w3.org/2000/svg" viewBox="0 0 237.90418797945858 239.62044455042314" width="475.80837595891717" height="479.2408891008463">
  <!-- svg-source:excalidraw -->
  
  <defs>
    <style class="style-fonts">
      @font-face {
        font-family: "Virgil";
        src: url("https://excalidraw.com/Virgil.woff2");
      }
      @font-face {
        font-family: "Cascadia";
        src: url("https://excalidraw.com/Cascadia.woff2");
      }
      @font-face {
        font-family: "Assistant";
        src: url("https://excalidraw.com/Assistant-Regular.woff2");
      }
    </style>
    
  </defs>
  <g stroke-linecap="round"><g transform="translate(44.602851593109335 136.06759620945377) rotate(0 -14.166601371388424 -11.901352962366218)" fill-rule="evenodd"><path d="M0 0 C0.83 -2.15, 4.68 -8.81, 4.95 -12.9 C5.22 -16.99, 6.03 -20.98, 1.61 -24.53 C-2.8 -28.08, -15.72 -33.69, -21.54 -34.21 C-27.35 -34.73, -31.39 -33.13, -33.29 -27.64 C-35.18 -22.15, -35 -7.59, -32.93 -1.25 C-30.87 5.09, -25.35 8.79, -20.89 10.4 C-16.44 12.02, -9.68 10.15, -6.2 8.41 C-2.72 6.68, -1.03 1.4, 0 0" stroke="none" stroke-width="0" fill="#a8ddda" fill-rule="evenodd"></path><path d="M0 0 C0.83 -2.15, 4.68 -8.81, 4.95 -12.9 C5.22 -16.99, 6.03 -20.98, 1.61 -24.53 C-2.8 -28.08, -15.72 -33.69, -21.54 -34.21 C-27.35 -34.73, -31.39 -33.13, -33.29 -27.64 C-35.18 -22.15, -35 -7.59, -32.93 -1.25 C-30.87 5.09, -25.35 8.79, -20.89 10.4 C-16.44 12.02, -9.68 10.15, -6.2 8.41 C-2.72 6.68, -1.03 1.4, 0 0 M0 0 C0.83 -2.15, 4.68 -8.81, 4.95 -12.9 C5.22 -16.99, 6.03 -20.98, 1.61 -24.53 C-2.8 -28.08, -15.72 -33.69, -21.54 -34.21 C-27.35 -34.73, -31.39 -33.13, -33.29 -27.64 C-35.18 -22.15, -35 -7.59, -32.93 -1.25 C-30.87 5.09, -25.35 8.79, -20.89 10.4 C-16.44 12.02, -9.68 10.15, -6.2 8.41 C-2.72 6.68, -1.03 1.4, 0 0" stroke="transparent" stroke-width="1" fill="none"></path></g></g><mask></mask><g stroke-linecap="round"><g transform="translate(193.5528489864937 141.57387142800326) rotate(0 13.588342308102256 -11.468841936102308)" fill-rule="evenodd"><path d="M0 0 C-0.79 -2.07, -4.49 -8.49, -4.75 -12.43 C-5.01 -16.37, -5.78 -20.22, -1.55 -23.64 C2.69 -27.06, 15.08 -32.46, 20.66 -32.96 C26.24 -33.46, 30.11 -31.93, 31.93 -26.64 C33.75 -21.34, 33.57 -7.32, 31.59 -1.21 C29.61 4.9, 24.32 8.47, 20.04 10.03 C15.77 11.58, 9.29 9.78, 5.95 8.11 C2.61 6.44, 0.99 1.35, 0 0" stroke="none" stroke-width="0" fill="#ccebb0" fill-rule="evenodd"></path><path d="M0 0 C-0.79 -2.07, -4.49 -8.49, -4.75 -12.43 C-5.01 -16.37, -5.78 -20.22, -1.55 -23.64 C2.69 -27.06, 15.08 -32.46, 20.66 -32.96 C26.24 -33.46, 30.11 -31.93, 31.93 -26.64 C33.75 -21.34, 33.57 -7.32, 31.59 -1.21 C29.61 4.9, 24.32 8.47, 20.04 10.03 C15.77 11.58, 9.29 9.78, 5.95 8.11 C2.61 6.44, 0.99 1.35, 0 0 M0 0 C-0.79 -2.07, -4.49 -8.49, -4.75 -12.43 C-5.01 -16.37, -5.78 -20.22, -1.55 -23.64 C2.69 -27.06, 15.08 -32.46, 20.66 -32.96 C26.24 -33.46, 30.11 -31.93, 31.93 -26.64 C33.75 -21.34, 33.57 -7.32, 31.59 -1.21 C29.61 4.9, 24.32 8.47, 20.04 10.03 C15.77 11.58, 9.29 9.78, 5.95 8.11 C2.61 6.44, 0.99 1.35, 0 0" stroke="transparent" stroke-width="1" fill="none"></path></g></g><mask></mask><g stroke-linecap="round"><g transform="translate(47.83754180199594 82.65333840548283) rotate(0 -13.990186575128519 -10.522967483939738)" fill-rule="evenodd"><path d="M0 0 C0.83 -2.15, 4.68 -8.81, 4.95 -12.9 C5.22 -16.99, 5.57 -21.44, 1.61 -24.53 C-2.34 -27.62, -13.17 -31.44, -18.78 -31.45 C-24.39 -31.46, -29.7 -29.61, -32.06 -24.58 C-34.42 -19.55, -34.79 -7.08, -32.93 -1.25 C-31.07 4.58, -25.35 8.79, -20.89 10.4 C-16.44 12.02, -9.68 10.15, -6.2 8.41 C-2.72 6.68, -1.03 1.4, 0 0" stroke="none" stroke-width="0" fill="#ccebb0" fill-rule="evenodd"></path><path d="M0 0 C0.83 -2.15, 4.68 -8.81, 4.95 -12.9 C5.22 -16.99, 5.57 -21.44, 1.61 -24.53 C-2.34 -27.62, -13.17 -31.44, -18.78 -31.45 C-24.39 -31.46, -29.7 -29.61, -32.06 -24.58 C-34.42 -19.55, -34.79 -7.08, -32.93 -1.25 C-31.07 4.58, -25.35 8.79, -20.89 10.4 C-16.44 12.02, -9.68 10.15, -6.2 8.41 C-2.72 6.68, -1.03 1.4, 0 0 M0 0 C0.83 -2.15, 4.68 -8.81, 4.95 -12.9 C5.22 -16.99, 5.57 -21.44, 1.61 -24.53 C-2.34 -27.62, -13.17 -31.44, -18.78 -31.45 C-24.39 -31.46, -29.7 -29.61, -32.06 -24.58 C-34.42 -19.55, -34.79 -7.08, -32.93 -1.25 C-31.07 4.58, -25.35 8.79, -20.89 10.4 C-16.44 12.02, -9.68 10.15, -6.2 8.41 C-2.72 6.68, -1.03 1.4, 0 0" stroke="transparent" stroke-width="1" fill="none"></path></g></g><mask></mask><g stroke-linecap="round"><g transform="translate(195.54384105359895 86.8672052677448) rotate(0 13.419128494785582 -10.243610399723366)" fill-rule="evenodd"><path d="M0 0 C-0.79 -2.07, -4.49 -8.49, -4.75 -12.43 C-5.01 -16.37, -4.81 -20.63, -1.55 -23.64 C1.72 -26.65, 9.67 -30.22, 14.84 -30.51 C20.01 -30.81, 26.68 -30.3, 29.48 -25.41 C32.27 -20.53, 33.16 -7.11, 31.59 -1.21 C30.02 4.7, 24.32 8.47, 20.04 10.03 C15.77 11.58, 9.29 9.78, 5.95 8.11 C2.61 6.44, 0.99 1.35, 0 0" stroke="none" stroke-width="0" fill="#a8ddda" fill-rule="evenodd"></path><path d="M0 0 C-0.79 -2.07, -4.49 -8.49, -4.75 -12.43 C-5.01 -16.37, -4.81 -20.63, -1.55 -23.64 C1.72 -26.65, 9.67 -30.22, 14.84 -30.51 C20.01 -30.81, 26.68 -30.3, 29.48 -25.41 C32.27 -20.53, 33.16 -7.11, 31.59 -1.21 C30.02 4.7, 24.32 8.47, 20.04 10.03 C15.77 11.58, 9.29 9.78, 5.95 8.11 C2.61 6.44, 0.99 1.35, 0 0 M0 0 C-0.79 -2.07, -4.49 -8.49, -4.75 -12.43 C-5.01 -16.37, -4.81 -20.63, -1.55 -23.64 C1.72 -26.65, 9.67 -30.22, 14.84 -30.51 C20.01 -30.81, 26.68 -30.3, 29.48 -25.41 C32.27 -20.53, 33.16 -7.11, 31.59 -1.21 C30.02 4.7, 24.32 8.47, 20.04 10.03 C15.77 11.58, 9.29 9.78, 5.95 8.11 C2.61 6.44, 0.99 1.35, 0 0" stroke="transparent" stroke-width="1" fill="none"></path></g></g><mask></mask><g stroke-linecap="round"><g transform="translate(196.39965458585903 201.33226520743847) rotate(0 11.903648945581153 -12.581612195464686)" fill-rule="evenodd"><path d="M0 0 C-0.79 -2.07, -4.49 -8.49, -4.75 -12.43 C-5.01 -16.37, -4.76 -20.22, -1.55 -23.64 C1.67 -27.06, 9.52 -32.62, 14.53 -32.96 C19.55 -33.31, 26.38 -29.43, 28.56 -25.72 C30.74 -22.01, 29.54 -15.28, 27.61 -10.7 C25.68 -6.12, 20.64 -1.33, 16.98 1.76 C13.32 4.84, 8.47 8.09, 5.64 7.8 C2.81 7.51, 0.94 1.3, 0 0" stroke="none" stroke-width="0" fill="#a8ddda" fill-rule="evenodd"></path><path d="M0 0 C-0.79 -2.07, -4.49 -8.49, -4.75 -12.43 C-5.01 -16.37, -4.76 -20.22, -1.55 -23.64 C1.67 -27.06, 9.52 -32.62, 14.53 -32.96 C19.55 -33.31, 26.38 -29.43, 28.56 -25.72 C30.74 -22.01, 29.54 -15.28, 27.61 -10.7 C25.68 -6.12, 20.64 -1.33, 16.98 1.76 C13.32 4.84, 8.47 8.09, 5.64 7.8 C2.81 7.51, 0.94 1.3, 0 0 M0 0 C-0.79 -2.07, -4.49 -8.49, -4.75 -12.43 C-5.01 -16.37, -4.76 -20.22, -1.55 -23.64 C1.67 -27.06, 9.52 -32.62, 14.53 -32.96 C19.55 -33.31, 26.38 -29.43, 28.56 -25.72 C30.74 -22.01, 29.54 -15.28, 27.61 -10.7 C25.68 -6.12, 20.64 -1.33, 16.98 1.76 C13.32 4.84, 8.47 8.09, 5.64 7.8 C2.81 7.51, 0.94 1.3, 0 0" stroke="transparent" stroke-width="1" fill="none"></path></g></g><mask></mask><g stroke-linecap="round"><g transform="translate(92.76816385003531 70.76241330201992) rotate(0 -3.3871619640590325 20.071327149775016)" fill-rule="evenodd"><path d="M0 0 C-2.21 -0.28, -9.23 -2.33, -13.29 -1.66 C-17.35 -0.99, -21.51 -0.11, -24.36 4.05 C-27.22 8.2, -30.35 18.44, -30.4 23.26 C-30.46 28.08, -30.77 29.9, -24.7 32.99 C-18.63 36.08, -1.71 40.65, 6.01 41.8 C13.73 42.95, 18.7 44.37, 21.64 39.89 C24.57 35.4, 25.06 20.91, 23.63 14.87 C22.2 8.83, 17.21 6.15, 13.06 3.63 C8.91 1.11, 1.11 0.39, -1.28 -0.26" stroke="none" stroke-width="0" fill="#a8ddda" fill-rule="evenodd"></path><path d="M0 0 C-2.21 -0.28, -9.23 -2.33, -13.29 -1.66 C-17.35 -0.99, -21.51 -0.11, -24.36 4.05 C-27.22 8.2, -30.35 18.44, -30.4 23.26 C-30.46 28.08, -30.77 29.9, -24.7 32.99 C-18.63 36.08, -1.71 40.65, 6.01 41.8 C13.73 42.95, 18.7 44.37, 21.64 39.89 C24.57 35.4, 25.06 20.91, 23.63 14.87 C22.2 8.83, 17.21 6.15, 13.06 3.63 C8.91 1.11, 1.11 0.39, -1.28 -0.26 M0 0 C-2.21 -0.28, -9.23 -2.33, -13.29 -1.66 C-17.35 -0.99, -21.51 -0.11, -24.36 4.05 C-27.22 8.2, -30.35 18.44, -30.4 23.26 C-30.46 28.08, -30.77 29.9, -24.7 32.99 C-18.63 36.08, -1.71 40.65, 6.01 41.8 C13.73 42.95, 18.7 44.37, 21.64 39.89 C24.57 35.4, 25.06 20.91, 23.63 14.87 C22.2 8.83, 17.21 6.15, 13.06 3.63 C8.91 1.11, 1.11 0.39, -1.28 -0.26" stroke="transparent" stroke-width="1" fill="none"></path></g></g><mask></mask><g stroke-linecap="round"><g transform="translate(89.05256282596656 125.04517124555969) rotate(0 -3.3871619640590325 20.071327149775016)" fill-rule="evenodd"><path d="M0 0 C-2.21 -0.28, -9.23 -2.33, -13.29 -1.66 C-17.35 -0.99, -21.51 -0.11, -24.36 4.05 C-27.22 8.2, -30.35 18.44, -30.4 23.26 C-30.46 28.08, -30.77 29.9, -24.7 32.99 C-18.63 36.08, -1.75 40.69, 6.01 41.8 C13.77 42.92, 18.92 44.16, 21.85 39.67 C24.79 35.18, 25.1 20.88, 23.63 14.87 C22.16 8.86, 17.21 6.15, 13.06 3.63 C8.91 1.11, 1.11 0.39, -1.28 -0.26" stroke="none" stroke-width="0" fill="#ccebb0" fill-rule="evenodd"></path><path d="M0 0 C-2.21 -0.28, -9.23 -2.33, -13.29 -1.66 C-17.35 -0.99, -21.51 -0.11, -24.36 4.05 C-27.22 8.2, -30.35 18.44, -30.4 23.26 C-30.46 28.08, -30.77 29.9, -24.7 32.99 C-18.63 36.08, -1.75 40.69, 6.01 41.8 C13.77 42.92, 18.92 44.16, 21.85 39.67 C24.79 35.18, 25.1 20.88, 23.63 14.87 C22.16 8.86, 17.21 6.15, 13.06 3.63 C8.91 1.11, 1.11 0.39, -1.28 -0.26 M0 0 C-2.21 -0.28, -9.23 -2.33, -13.29 -1.66 C-17.35 -0.99, -21.51 -0.11, -24.36 4.05 C-27.22 8.2, -30.35 18.44, -30.4 23.26 C-30.46 28.08, -30.77 29.9, -24.7 32.99 C-18.63 36.08, -1.75 40.69, 6.01 41.8 C13.77 42.92, 18.92 44.16, 21.85 39.67 C24.79 35.18, 25.1 20.88, 23.63 14.87 C22.16 8.86, 17.21 6.15, 13.06 3.63 C8.91 1.11, 1.11 0.39, -1.28 -0.26" stroke="transparent" stroke-width="1" fill="none"></path></g></g><mask></mask><g stroke-linecap="round"><g transform="translate(89.324014479168 181.77856676460942) rotate(0 -2.0814989298032742 22.14276451511796)" fill-rule="evenodd"><path d="M0 0 C-2.21 -0.28, -9.23 -2.33, -13.29 -1.66 C-17.35 -0.99, -21.51 -0.11, -24.36 4.05 C-27.22 8.2, -30.49 17.79, -30.4 23.26 C-30.32 28.73, -28.75 33.2, -23.87 36.84 C-19 40.48, -8.81 43.58, -1.13 45.1 C6.54 46.62, 17.63 49.65, 22.19 45.95 C26.75 42.25, 26.48 29.87, 26.24 22.9 C26 15.93, 25.32 8, 20.73 4.14 C16.14 0.28, 2.39 0.48, -1.28 -0.26" stroke="none" stroke-width="0" fill="#a8ddda" fill-rule="evenodd"></path><path d="M0 0 C-2.21 -0.28, -9.23 -2.33, -13.29 -1.66 C-17.35 -0.99, -21.51 -0.11, -24.36 4.05 C-27.22 8.2, -30.49 17.79, -30.4 23.26 C-30.32 28.73, -28.75 33.2, -23.87 36.84 C-19 40.48, -8.81 43.58, -1.13 45.1 C6.54 46.62, 17.63 49.65, 22.19 45.95 C26.75 42.25, 26.48 29.87, 26.24 22.9 C26 15.93, 25.32 8, 20.73 4.14 C16.14 0.28, 2.39 0.48, -1.28 -0.26 M0 0 C-2.21 -0.28, -9.23 -2.33, -13.29 -1.66 C-17.35 -0.99, -21.51 -0.11, -24.36 4.05 C-27.22 8.2, -30.49 17.79, -30.4 23.26 C-30.32 28.73, -28.75 33.2, -23.87 36.84 C-19 40.48, -8.81 43.58, -1.13 45.1 C6.54 46.62, 17.63 49.65, 22.19 45.95 C26.75 42.25, 26.48 29.87, 26.24 22.9 C26 15.93, 25.32 8, 20.73 4.14 C16.14 0.28, 2.39 0.48, -1.28 -0.26" stroke="transparent" stroke-width="1" fill="none"></path></g></g><mask></mask><g stroke-linecap="round"><g transform="translate(151.35698639964357 71.7496585277313) rotate(0 3.8846848501025306 20.529239610736113)" fill-rule="evenodd"><path d="M0 0 C2.19 -0.28, 9.1 -2.39, 13.11 -1.7 C17.12 -1.01, 21.22 -0.11, 24.04 4.14 C26.85 8.39, 29.94 18.86, 30 23.79 C30.05 28.72, 30.36 30.58, 24.37 33.75 C18.38 36.91, 1.62 41.56, -5.93 42.76 C-13.48 43.95, -18.24 45.94, -20.95 40.92 C-23.67 35.89, -23.57 18.81, -22.23 12.6 C-20.88 6.4, -16.8 5.85, -12.88 3.71 C-8.97 1.56, -1.1 0.4, 1.26 -0.26" stroke="none" stroke-width="0" fill="#ccebb0" fill-rule="evenodd"></path><path d="M0 0 C2.19 -0.28, 9.1 -2.39, 13.11 -1.7 C17.12 -1.01, 21.22 -0.11, 24.04 4.14 C26.85 8.39, 29.94 18.86, 30 23.79 C30.05 28.72, 30.36 30.58, 24.37 33.75 C18.38 36.91, 1.62 41.56, -5.93 42.76 C-13.48 43.95, -18.24 45.94, -20.95 40.92 C-23.67 35.89, -23.57 18.81, -22.23 12.6 C-20.88 6.4, -16.8 5.85, -12.88 3.71 C-8.97 1.56, -1.1 0.4, 1.26 -0.26 M0 0 C2.19 -0.28, 9.1 -2.39, 13.11 -1.7 C17.12 -1.01, 21.22 -0.11, 24.04 4.14 C26.85 8.39, 29.94 18.86, 30 23.79 C30.05 28.72, 30.36 30.58, 24.37 33.75 C18.38 36.91, 1.62 41.56, -5.93 42.76 C-13.48 43.95, -18.24 45.94, -20.95 40.92 C-23.67 35.89, -23.57 18.81, -22.23 12.6 C-20.88 6.4, -16.8 5.85, -12.88 3.71 C-8.97 1.56, -1.1 0.4, 1.26 -0.26" stroke="transparent" stroke-width="1" fill="none"></path></g></g><mask></mask><g stroke-linecap="round"><g transform="translate(152.326616826178 127.27703035185095) rotate(0 3.450525903446305 20.529239610736113)" fill-rule="evenodd"><path d="M0 0 C2.19 -0.28, 9.1 -2.39, 13.11 -1.7 C17.12 -1.01, 21.22 -0.11, 24.04 4.14 C26.85 8.39, 29.94 18.86, 30 23.79 C30.05 28.72, 30.36 30.58, 24.37 33.75 C18.38 36.91, 1.7 41.6, -5.93 42.76 C-13.56 43.92, -18.53 45.66, -21.39 40.7 C-24.25 35.75, -24.52 19.2, -23.1 13.04 C-21.68 6.87, -16.94 5.93, -12.88 3.71 C-8.82 1.49, -1.1 0.4, 1.26 -0.26" stroke="none" stroke-width="0" fill="#a8ddda" fill-rule="evenodd"></path><path d="M0 0 C2.19 -0.28, 9.1 -2.39, 13.11 -1.7 C17.12 -1.01, 21.22 -0.11, 24.04 4.14 C26.85 8.39, 29.94 18.86, 30 23.79 C30.05 28.72, 30.36 30.58, 24.37 33.75 C18.38 36.91, 1.7 41.6, -5.93 42.76 C-13.56 43.92, -18.53 45.66, -21.39 40.7 C-24.25 35.75, -24.52 19.2, -23.1 13.04 C-21.68 6.87, -16.94 5.93, -12.88 3.71 C-8.82 1.49, -1.1 0.4, 1.26 -0.26 M0 0 C2.19 -0.28, 9.1 -2.39, 13.11 -1.7 C17.12 -1.01, 21.22 -0.11, 24.04 4.14 C26.85 8.39, 29.94 18.86, 30 23.79 C30.05 28.72, 30.36 30.58, 24.37 33.75 C18.38 36.91, 1.7 41.6, -5.93 42.76 C-13.56 43.92, -18.53 45.66, -21.39 40.7 C-24.25 35.75, -24.52 19.2, -23.1 13.04 C-21.68 6.87, -16.94 5.93, -12.88 3.71 C-8.82 1.49, -1.1 0.4, 1.26 -0.26" stroke="transparent" stroke-width="1" fill="none"></path></g></g><mask></mask><g stroke-linecap="round"><g transform="translate(89.62243390649473 10.673908580174611) rotate(0 1.1709458992600048 16.47437470127943)" fill-rule="evenodd"><path d="M0 0 C-2.66 0.69, -12.37 1.98, -15.98 4.14 C-19.59 6.31, -20.21 9.57, -21.64 12.99 C-23.08 16.42, -24.76 21.37, -24.6 24.69 C-24.45 28.02, -24.32 32.33, -20.73 32.95 C-17.14 33.56, -10.3 29.57, -3.06 28.38 C4.18 27.2, 17.73 27.96, 22.73 25.84 C27.74 23.72, 26.43 19.85, 26.95 15.66 C27.46 11.46, 30.3 3.26, 25.81 0.65 C21.31 -1.96, 4.3 0.11, 0 0" stroke="none" stroke-width="0" fill="#ccebb0" fill-rule="evenodd"></path><path d="M0 0 C-2.66 0.69, -12.37 1.98, -15.98 4.14 C-19.59 6.31, -20.21 9.57, -21.64 12.99 C-23.08 16.42, -24.76 21.37, -24.6 24.69 C-24.45 28.02, -24.32 32.33, -20.73 32.95 C-17.14 33.56, -10.3 29.57, -3.06 28.38 C4.18 27.2, 17.73 27.96, 22.73 25.84 C27.74 23.72, 26.43 19.85, 26.95 15.66 C27.46 11.46, 30.3 3.26, 25.81 0.65 C21.31 -1.96, 4.3 0.11, 0 0 M0 0 C-2.66 0.69, -12.37 1.98, -15.98 4.14 C-19.59 6.31, -20.21 9.57, -21.64 12.99 C-23.08 16.42, -24.76 21.37, -24.6 24.69 C-24.45 28.02, -24.32 32.33, -20.73 32.95 C-17.14 33.56, -10.3 29.57, -3.06 28.38 C4.18 27.2, 17.73 27.96, 22.73 25.84 C27.74 23.72, 26.43 19.85, 26.95 15.66 C27.46 11.46, 30.3 3.26, 25.81 0.65 C21.31 -1.96, 4.3 0.11, 0 0" stroke="transparent" stroke-width="1" fill="none"></path></g></g><mask></mask><g stroke-linecap="round"><g transform="translate(38.429724272845306 44.07783938536977) rotate(0 8.392592151541976 -6.750313010838454)" fill-rule="evenodd"><path d="M0 0 C-0.33 -1.23, -2.81 -5.1, -1.98 -7.36 C-1.14 -9.63, 2.32 -11.65, 5 -13.6 C7.69 -15.54, 11.84 -18.76, 14.13 -19.06 C16.42 -19.35, 18.01 -18.45, 18.76 -15.35 C19.51 -12.25, 19.22 -3.94, 18.62 -0.45 C18.02 3.03, 16.58 4.62, 15.16 5.56 C13.75 6.49, 12.67 6.07, 10.14 5.15 C7.62 4.22, 1.69 0.86, 0 0" stroke="none" stroke-width="0" fill="#a8ddda" fill-rule="evenodd"></path><path d="M0 0 C-0.33 -1.23, -2.81 -5.1, -1.98 -7.36 C-1.14 -9.63, 2.32 -11.65, 5 -13.6 C7.69 -15.54, 11.84 -18.76, 14.13 -19.06 C16.42 -19.35, 18.01 -18.45, 18.76 -15.35 C19.51 -12.25, 19.22 -3.94, 18.62 -0.45 C18.02 3.03, 16.58 4.62, 15.16 5.56 C13.75 6.49, 12.67 6.07, 10.14 5.15 C7.62 4.22, 1.69 0.86, 0 0 M0 0 C-0.33 -1.23, -2.81 -5.1, -1.98 -7.36 C-1.14 -9.63, 2.32 -11.65, 5 -13.6 C7.69 -15.54, 11.84 -18.76, 14.13 -19.06 C16.42 -19.35, 18.01 -18.45, 18.76 -15.35 C19.51 -12.25, 19.22 -3.94, 18.62 -0.45 C18.02 3.03, 16.58 4.62, 15.16 5.56 C13.75 6.49, 12.67 6.07, 10.14 5.15 C7.62 4.22, 1.69 0.86, 0 0" stroke="transparent" stroke-width="1" fill="none"></path></g></g><mask></mask><g stroke-linecap="round"><g transform="translate(200.52471368417355 50.75906768158893) rotate(0 -3.978126890857311 -10.244118237742214)" fill-rule="evenodd"><path d="M0 0 C1.05 -1.28, 6.5 -4.82, 6.29 -7.69 C6.08 -10.56, 1.43 -14.72, -1.26 -17.22 C-3.96 -19.72, -7.71 -22.39, -9.87 -22.68 C-12.04 -22.97, -13.54 -22.07, -14.25 -18.98 C-14.95 -15.88, -14.68 -7.57, -14.11 -4.09 C-13.55 -0.61, -12.25 0.86, -10.85 1.91 C-9.45 2.96, -7.54 2.51, -5.73 2.19 C-3.92 1.87, -0.96 0.36, 0 0" stroke="none" stroke-width="0" fill="#ccebb0" fill-rule="evenodd"></path><path d="M0 0 C1.05 -1.28, 6.5 -4.82, 6.29 -7.69 C6.08 -10.56, 1.43 -14.72, -1.26 -17.22 C-3.96 -19.72, -7.71 -22.39, -9.87 -22.68 C-12.04 -22.97, -13.54 -22.07, -14.25 -18.98 C-14.95 -15.88, -14.68 -7.57, -14.11 -4.09 C-13.55 -0.61, -12.25 0.86, -10.85 1.91 C-9.45 2.96, -7.54 2.51, -5.73 2.19 C-3.92 1.87, -0.96 0.36, 0 0 M0 0 C1.05 -1.28, 6.5 -4.82, 6.29 -7.69 C6.08 -10.56, 1.43 -14.72, -1.26 -17.22 C-3.96 -19.72, -7.71 -22.39, -9.87 -22.68 C-12.04 -22.97, -13.54 -22.07, -14.25 -18.98 C-14.95 -15.88, -14.68 -7.57, -14.11 -4.09 C-13.55 -0.61, -12.25 0.86, -10.85 1.91 C-9.45 2.96, -7.54 2.51, -5.73 2.19 C-3.92 1.87, -0.96 0.36, 0 0" stroke="transparent" stroke-width="1" fill="none"></path></g></g><mask></mask><g stroke-linecap="round"><g transform="translate(153.03093655307566 182.83817338566632) rotate(0 3.717131980233262 21.595386598515006)" fill-rule="evenodd"><path d="M0 0 C2.32 -0.28, 9.68 -2.32, 13.94 -1.65 C18.2 -0.98, 22.56 -0.11, 25.55 4.02 C28.55 8.15, 31.98 17.69, 31.89 23.13 C31.81 28.56, 30.16 33.01, 25.04 36.63 C19.92 40.25, 8.82 43.5, 1.19 44.84 C-6.45 46.18, -16.5 48.53, -20.77 44.67 C-25.04 40.81, -24.47 28.43, -24.46 21.68 C-24.44 14.94, -24.99 7.86, -20.69 4.21 C-16.39 0.55, -2.33 0.49, 1.34 -0.25" stroke="none" stroke-width="0" fill="#ccebb0" fill-rule="evenodd"></path><path d="M0 0 C2.32 -0.28, 9.68 -2.32, 13.94 -1.65 C18.2 -0.98, 22.56 -0.11, 25.55 4.02 C28.55 8.15, 31.98 17.69, 31.89 23.13 C31.81 28.56, 30.16 33.01, 25.04 36.63 C19.92 40.25, 8.82 43.5, 1.19 44.84 C-6.45 46.18, -16.5 48.53, -20.77 44.67 C-25.04 40.81, -24.47 28.43, -24.46 21.68 C-24.44 14.94, -24.99 7.86, -20.69 4.21 C-16.39 0.55, -2.33 0.49, 1.34 -0.25 M0 0 C2.32 -0.28, 9.68 -2.32, 13.94 -1.65 C18.2 -0.98, 22.56 -0.11, 25.55 4.02 C28.55 8.15, 31.98 17.69, 31.89 23.13 C31.81 28.56, 30.16 33.01, 25.04 36.63 C19.92 40.25, 8.82 43.5, 1.19 44.84 C-6.45 46.18, -16.5 48.53, -20.77 44.67 C-25.04 40.81, -24.47 28.43, -24.46 21.68 C-24.44 14.94, -24.99 7.86, -20.69 4.21 C-16.39 0.55, -2.33 0.49, 1.34 -0.25" stroke="transparent" stroke-width="1" fill="none"></path></g></g><mask></mask><g stroke-linecap="round"><g transform="translate(152.83343962015533 10.534091745646947) rotate(0 -1.686838452485972 16.180901825090814)" fill-rule="evenodd"><path d="M0 0 C2.62 0.69, 12.22 2, 15.75 4.14 C19.27 6.27, 19.79 9.45, 21.16 12.81 C22.54 16.16, 24.14 21.02, 24 24.27 C23.85 27.53, 23.72 31.76, 20.29 32.36 C16.85 32.96, 10.74 28.89, 3.39 27.89 C-3.97 26.88, -18.73 28.51, -23.86 26.33 C-28.99 24.15, -27 19.03, -27.37 14.82 C-27.74 10.6, -30.61 3.5, -26.05 1.03 C-21.49 -1.43, -4.34 0.17, 0 0" stroke="none" stroke-width="0" fill="#a8ddda" fill-rule="evenodd"></path><path d="M0 0 C2.62 0.69, 12.22 2, 15.75 4.14 C19.27 6.27, 19.79 9.45, 21.16 12.81 C22.54 16.16, 24.14 21.02, 24 24.27 C23.85 27.53, 23.72 31.76, 20.29 32.36 C16.85 32.96, 10.74 28.89, 3.39 27.89 C-3.97 26.88, -18.73 28.51, -23.86 26.33 C-28.99 24.15, -27 19.03, -27.37 14.82 C-27.74 10.6, -30.61 3.5, -26.05 1.03 C-21.49 -1.43, -4.34 0.17, 0 0 M0 0 C2.62 0.69, 12.22 2, 15.75 4.14 C19.27 6.27, 19.79 9.45, 21.16 12.81 C22.54 16.16, 24.14 21.02, 24 24.27 C23.85 27.53, 23.72 31.76, 20.29 32.36 C16.85 32.96, 10.74 28.89, 3.39 27.89 C-3.97 26.88, -18.73 28.51, -23.86 26.33 C-28.99 24.15, -27 19.03, -27.37 14.82 C-27.74 10.6, -30.61 3.5, -26.05 1.03 C-21.49 -1.43, -4.34 0.17, 0 0" stroke="transparent" stroke-width="1" fill="none"></path></g></g><mask></mask><g stroke-linecap="round"><g transform="translate(46.35374559232514 197.18010499704133) rotate(0 -11.947322950934904 -12.298274423055773)" fill-rule="evenodd"><path d="M0 0 C0.79 -2.03, 4.51 -8.3, 4.77 -12.15 C5.03 -16, 4.78 -19.76, 1.55 -23.11 C-1.67 -26.45, -9.55 -31.88, -14.59 -32.22 C-19.62 -32.56, -26.48 -28.77, -28.66 -25.14 C-30.85 -21.51, -29.64 -14.94, -27.71 -10.46 C-25.77 -5.99, -20.72 -1.3, -17.04 1.72 C-13.37 4.73, -8.5 7.91, -5.66 7.63 C-2.82 7.34, -0.94 1.27, 0 0" stroke="none" stroke-width="0" fill="#ccebb0" fill-rule="evenodd"></path><path d="M0 0 C0.79 -2.03, 4.51 -8.3, 4.77 -12.15 C5.03 -16, 4.78 -19.76, 1.55 -23.11 C-1.67 -26.45, -9.55 -31.88, -14.59 -32.22 C-19.62 -32.56, -26.48 -28.77, -28.66 -25.14 C-30.85 -21.51, -29.64 -14.94, -27.71 -10.46 C-25.77 -5.99, -20.72 -1.3, -17.04 1.72 C-13.37 4.73, -8.5 7.91, -5.66 7.63 C-2.82 7.34, -0.94 1.27, 0 0 M0 0 C0.79 -2.03, 4.51 -8.3, 4.77 -12.15 C5.03 -16, 4.78 -19.76, 1.55 -23.11 C-1.67 -26.45, -9.55 -31.88, -14.59 -32.22 C-19.62 -32.56, -26.48 -28.77, -28.66 -25.14 C-30.85 -21.51, -29.64 -14.94, -27.71 -10.46 C-25.77 -5.99, -20.72 -1.3, -17.04 1.72 C-13.37 4.73, -8.5 7.91, -5.66 7.63 C-2.82 7.34, -0.94 1.27, 0 0" stroke="transparent" stroke-width="1" fill="none"></path></g></g><mask></mask></svg><style>@media (prefers-color-scheme: light) { :root { filter: none; } }
@media (prefers-color-scheme: dark) { :root { filter: none; } }
</style></svg>