<svg xmlns="http://www.w3.org/2000/svg" version="1.1" xmlns:xlink="http://www.w3.org/1999/xlink" xmlns:svgjs="http://svgjs.dev/svgjs" width="1000" height="1000"><style>
    #light-icon {
      display: inline;
    }
    #dark-icon {
      display: none;
    }

    @media (prefers-color-scheme: dark) {
      #light-icon {
        display: none;
      }
      #dark-icon {
        display: inline;
      }
    }
  </style><g id="light-icon"><svg xmlns="http://www.w3.org/2000/svg" version="1.1" xmlns:xlink="http://www.w3.org/1999/xlink" xmlns:svgjs="http://svgjs.dev/svgjs" width="1000" height="1000"><g><g transform="matrix(3.729065960128281,0,0,3.729065960128281,0,4.039415461790213)"><svg xmlns="http://www.w3.org/2000/svg" version="1.1" xmlns:xlink="http://www.w3.org/1999/xlink" xmlns:svgjs="http://svgjs.dev/svgjs" width="268.1636663690442" height="265.9972174486013"><svg version="1.1" xmlns="http://www.w3.org/2000/svg" viewBox="0 0 134.0818331845221 132.99860872430065" width="268.1636663690442" height="265.9972174486013"><!-- svg-source:excalidraw --><metadata></metadata><defs><style class="style-fonts">
      </style></defs><g stroke-linecap="round" transform="translate(10 10) rotate(0 57.040916592261055 56.49930436215033)"><path d="M28.25 0 C43.82 0, 59.38 0, 85.83 0 C104.67 0, 114.08 9.42, 114.08 28.25 C114.08 47.32, 114.08 66.39, 114.08 84.75 C114.08 103.58, 104.67 113, 85.83 113 C63.92 113, 42 113, 28.25 113 C9.42 113, 0 103.58, 0 84.75 C0 65.93, 0 47.12, 0 28.25 C0 9.42, 9.42 0, 28.25 0" stroke="none" stroke-width="0" fill="#a3d4f4"></path><path d="M28.25 0 C49.36 0, 70.46 0, 85.83 0 M28.25 0 C40.95 0, 53.65 0, 85.83 0 M85.83 0 C104.67 0, 114.08 9.42, 114.08 28.25 M85.83 0 C104.67 0, 114.08 9.42, 114.08 28.25 M114.08 28.25 C114.08 41.81, 114.08 55.37, 114.08 84.75 M114.08 28.25 C114.08 50.81, 114.08 73.36, 114.08 84.75 M114.08 84.75 C114.08 103.58, 104.67 113, 85.83 113 M114.08 84.75 C114.08 103.58, 104.67 113, 85.83 113 M85.83 113 C72.81 113, 59.78 113, 28.25 113 M85.83 113 C64.45 113, 43.06 113, 28.25 113 M28.25 113 C9.42 113, 0 103.58, 0 84.75 M28.25 113 C9.42 113, 0 103.58, 0 84.75 M0 84.75 C0 64.06, 0 43.37, 0 28.25 M0 84.75 C0 72.94, 0 61.13, 0 28.25 M0 28.25 C0 9.42, 9.42 0, 28.25 0 M0 28.25 C0 9.42, 9.42 0, 28.25 0" stroke="transparent" stroke-width="4" fill="none"></path></g><g stroke-linecap="round" transform="translate(81.34810327883542 47.86640838510841) rotate(47.18323930019426 0.796424357287151 1.5058615297808924)"><path d="M0.4 0 C0.59 0, 0.79 0, 1.19 0 C1.46 0, 1.59 0.13, 1.59 0.4 C1.59 1.18, 1.59 1.96, 1.59 2.61 C1.59 2.88, 1.46 3.01, 1.19 3.01 C1.02 3.01, 0.84 3.01, 0.4 3.01 C0.13 3.01, 0 2.88, 0 2.61 C0 1.89, 0 1.17, 0 0.4 C0 0.13, 0.13 0, 0.4 0" stroke="none" stroke-width="0" fill="#a3d4f4"></path><path d="M0.4 0 C0.68 0, 0.95 0, 1.19 0 M0.4 0 C0.58 0, 0.77 0, 1.19 0 M1.19 0 C1.46 0, 1.59 0.13, 1.59 0.4 M1.19 0 C1.46 0, 1.59 0.13, 1.59 0.4 M1.59 0.4 C1.59 1.17, 1.59 1.94, 1.59 2.61 M1.59 0.4 C1.59 1.06, 1.59 1.73, 1.59 2.61 M1.59 2.61 C1.59 2.88, 1.46 3.01, 1.19 3.01 M1.59 2.61 C1.59 2.88, 1.46 3.01, 1.19 3.01 M1.19 3.01 C1.01 3.01, 0.83 3.01, 0.4 3.01 M1.19 3.01 C1.02 3.01, 0.84 3.01, 0.4 3.01 M0.4 3.01 C0.13 3.01, 0 2.88, 0 2.61 M0.4 3.01 C0.13 3.01, 0 2.88, 0 2.61 M0 2.61 C0 1.77, 0 0.92, 0 0.4 M0 2.61 C0 2.06, 0 1.51, 0 0.4 M0 0.4 C0 0.13, 0.13 0, 0.4 0 M0 0.4 C0 0.13, 0.13 0, 0.4 0" stroke="#20357c" stroke-width="1" fill="none"></path></g><g stroke-linecap="round" transform="translate(78.74158098033467 65.51500284684228) rotate(116.16078644170506 0.9540749057982794 1.5058615297808933)"><path d="M0.48 0 C0.78 0, 1.08 0, 1.43 0 C1.75 0, 1.91 0.16, 1.91 0.48 C1.91 1.15, 1.91 1.82, 1.91 2.53 C1.91 2.85, 1.75 3.01, 1.43 3.01 C1.06 3.01, 0.69 3.01, 0.48 3.01 C0.16 3.01, 0 2.85, 0 2.53 C0 1.77, 0 1, 0 0.48 C0 0.16, 0.16 0, 0.48 0" stroke="none" stroke-width="0" fill="#a3d4f4"></path><path d="M0.48 0 C0.84 0, 1.2 0, 1.43 0 M0.48 0 C0.85 0, 1.21 0, 1.43 0 M1.43 0 C1.75 0, 1.91 0.16, 1.91 0.48 M1.43 0 C1.75 0, 1.91 0.16, 1.91 0.48 M1.91 0.48 C1.91 1, 1.91 1.53, 1.91 2.53 M1.91 0.48 C1.91 1.01, 1.91 1.55, 1.91 2.53 M1.91 2.53 C1.91 2.85, 1.75 3.01, 1.43 3.01 M1.91 2.53 C1.91 2.85, 1.75 3.01, 1.43 3.01 M1.43 3.01 C1.11 3.01, 0.79 3.01, 0.48 3.01 M1.43 3.01 C1.1 3.01, 0.78 3.01, 0.48 3.01 M0.48 3.01 C0.16 3.01, 0 2.85, 0 2.53 M0.48 3.01 C0.16 3.01, 0 2.85, 0 2.53 M0 2.53 C0 2.1, 0 1.66, 0 0.48 M0 2.53 C0 1.78, 0 1.02, 0 0.48 M0 0.48 C0 0.16, 0.16 0, 0.48 0 M0 0.48 C0 0.16, 0.16 0, 0.48 0" stroke="#20357c" stroke-width="1" fill="none"></path></g><g stroke-linecap="round" transform="translate(83.67586127720733 87.40843698549912) rotate(133.4246250736536 1.0738263991190706 1.5058615297808933)"><path d="M0.54 0 C0.75 0, 0.97 0, 1.61 0 C1.97 0, 2.15 0.18, 2.15 0.54 C2.15 1.25, 2.15 1.97, 2.15 2.47 C2.15 2.83, 1.97 3.01, 1.61 3.01 C1.2 3.01, 0.79 3.01, 0.54 3.01 C0.18 3.01, 0 2.83, 0 2.47 C0 2.02, 0 1.57, 0 0.54 C0 0.18, 0.18 0, 0.54 0" stroke="none" stroke-width="0" fill="#a3d4f4"></path><path d="M0.54 0 C0.83 0, 1.12 0, 1.61 0 M0.54 0 C0.8 0, 1.07 0, 1.61 0 M1.61 0 C1.97 0, 2.15 0.18, 2.15 0.54 M1.61 0 C1.97 0, 2.15 0.18, 2.15 0.54 M2.15 0.54 C2.15 1.24, 2.15 1.93, 2.15 2.47 M2.15 0.54 C2.15 1.17, 2.15 1.8, 2.15 2.47 M2.15 2.47 C2.15 2.83, 1.97 3.01, 1.61 3.01 M2.15 2.47 C2.15 2.83, 1.97 3.01, 1.61 3.01 M1.61 3.01 C1.35 3.01, 1.08 3.01, 0.54 3.01 M1.61 3.01 C1.39 3.01, 1.17 3.01, 0.54 3.01 M0.54 3.01 C0.18 3.01, 0 2.83, 0 2.47 M0.54 3.01 C0.18 3.01, 0 2.83, 0 2.47 M0 2.47 C0 1.99, 0 1.51, 0 0.54 M0 2.47 C0 2.03, 0 1.58, 0 0.54 M0 0.54 C0 0.18, 0.18 0, 0.54 0 M0 0.54 C0 0.18, 0.18 0, 0.54 0" stroke="#20357c" stroke-width="1" fill="none"></path></g><g stroke-linecap="round" transform="translate(75.38555387265023 55.998424401016024) rotate(68.7047486594876 0.796424357287151 2.53069722621726)"><path d="M0.4 0 C0.6 0, 0.8 0, 1.19 0 C1.46 0, 1.59 0.13, 1.59 0.4 C1.59 1.99, 1.59 3.57, 1.59 4.66 C1.59 4.93, 1.46 5.06, 1.19 5.06 C0.94 5.06, 0.68 5.06, 0.4 5.06 C0.13 5.06, 0 4.93, 0 4.66 C0 3.07, 0 1.49, 0 0.4 C0 0.13, 0.13 0, 0.4 0" stroke="none" stroke-width="0" fill="#e8ecf7"></path><path d="M0.4 0 C0.63 0, 0.86 0, 1.19 0 M0.4 0 C0.67 0, 0.94 0, 1.19 0 M1.19 0 C1.46 0, 1.59 0.13, 1.59 0.4 M1.19 0 C1.46 0, 1.59 0.13, 1.59 0.4 M1.59 0.4 C1.59 1.62, 1.59 2.85, 1.59 4.66 M1.59 0.4 C1.59 1.93, 1.59 3.45, 1.59 4.66 M1.59 4.66 C1.59 4.93, 1.46 5.06, 1.19 5.06 M1.59 4.66 C1.59 4.93, 1.46 5.06, 1.19 5.06 M1.19 5.06 C0.97 5.06, 0.75 5.06, 0.4 5.06 M1.19 5.06 C0.95 5.06, 0.71 5.06, 0.4 5.06 M0.4 5.06 C0.13 5.06, 0 4.93, 0 4.66 M0.4 5.06 C0.13 5.06, 0 4.93, 0 4.66 M0 4.66 C0 3.63, 0 2.59, 0 0.4 M0 4.66 C0 3.47, 0 2.27, 0 0.4 M0 0.4 C0 0.13, 0.13 0, 0.4 0 M0 0.4 C0 0.13, 0.13 0, 0.4 0" stroke="#20357c" stroke-width="1" fill="none"></path></g><g stroke-linecap="round" transform="translate(75.8493432075029 52.15460930565695) rotate(337.2175942695135 0.796424357287151 3.0348018658318043)"><path d="M0.4 0 C0.59 0, 0.78 0, 1.19 0 C1.46 0, 1.59 0.13, 1.59 0.4 C1.59 2.25, 1.59 4.09, 1.59 5.67 C1.59 5.94, 1.46 6.07, 1.19 6.07 C0.96 6.07, 0.72 6.07, 0.4 6.07 C0.13 6.07, 0 5.94, 0 5.67 C0 3.6, 0 1.53, 0 0.4 C0 0.13, 0.13 0, 0.4 0" stroke="none" stroke-width="0" fill="#20357c"></path><path d="M0.4 0 C0.63 0, 0.86 0, 1.19 0 M0.4 0 C0.61 0, 0.83 0, 1.19 0 M1.19 0 C1.46 0, 1.59 0.13, 1.59 0.4 M1.19 0 C1.46 0, 1.59 0.13, 1.59 0.4 M1.59 0.4 C1.59 1.79, 1.59 3.17, 1.59 5.67 M1.59 0.4 C1.59 2.49, 1.59 4.59, 1.59 5.67 M1.59 5.67 C1.59 5.94, 1.46 6.07, 1.19 6.07 M1.59 5.67 C1.59 5.94, 1.46 6.07, 1.19 6.07 M1.19 6.07 C0.99 6.07, 0.78 6.07, 0.4 6.07 M1.19 6.07 C0.94 6.07, 0.69 6.07, 0.4 6.07 M0.4 6.07 C0.13 6.07, 0 5.94, 0 5.67 M0.4 6.07 C0.13 6.07, 0 5.94, 0 5.67 M0 5.67 C0 4.62, 0 3.56, 0 0.4 M0 5.67 C0 3.94, 0 2.2, 0 0.4 M0 0.4 C0 0.13, 0.13 0, 0.4 0 M0 0.4 C0 0.13, 0.13 0, 0.4 0" stroke="#20357c" stroke-width="1" fill="none"></path></g><g stroke-linecap="round"><g transform="translate(81.59752180630494 48.82387249698276) rotate(0 -15.87549333326001 17.662464219790596)"><path d="M0 0 C-1.89 -1.82, -7.76 -8.85, -11.35 -10.92 C-14.94 -12.99, -18.4 -13.15, -21.54 -12.43 C-24.67 -11.7, -27.96 -9.5, -30.14 -6.58 C-32.31 -3.65, -33.88 0.92, -34.59 5.13 C-35.3 9.33, -35.4 14.21, -34.41 18.64 C-33.42 23.07, -31.57 28.1, -28.67 31.73 C-25.78 35.36, -20 38.22, -17.06 40.43 C-14.12 42.64, -13.08 43.79, -11.04 45.01 C-9 46.23, -7.11 48.51, -4.79 47.75 C-2.48 46.99, 1.57 41.65, 2.84 40.43 M0 0 C-1.89 -1.82, -7.76 -8.85, -11.35 -10.92 C-14.94 -12.99, -18.4 -13.15, -21.54 -12.43 C-24.67 -11.7, -27.96 -9.5, -30.14 -6.58 C-32.31 -3.65, -33.88 0.92, -34.59 5.13 C-35.3 9.33, -35.4 14.21, -34.41 18.64 C-33.42 23.07, -31.57 28.1, -28.67 31.73 C-25.78 35.36, -20 38.22, -17.06 40.43 C-14.12 42.64, -13.08 43.79, -11.04 45.01 C-9 46.23, -7.11 48.51, -4.79 47.75 C-2.48 46.99, 1.57 41.65, 2.84 40.43" stroke="#20357c" stroke-width="4" fill="none"></path></g></g><mask></mask><g stroke-linecap="round"><g transform="translate(54.015596654455294 65.52281175421143) rotate(0 14.190132223924593 -0.5705284780372466)"><path d="M0 0 C1.93 -0.69, 8.67 -3.2, 11.57 -4.17 C14.48 -5.13, 15.8 -5.07, 17.43 -5.8 C19.06 -6.52, 20.94 -7.06, 21.37 -8.51 C21.8 -9.97, 21.2 -12.5, 20.01 -14.52 C18.82 -16.54, 16.17 -19.38, 14.21 -20.66 C12.25 -21.94, 10.1 -22.4, 8.24 -22.2 C6.37 -21.99, 4.51 -21.57, 3.02 -19.43 C1.54 -17.28, -0.31 -13.35, -0.68 -9.33 C-1.04 -5.3, -0.42 1.03, 0.82 4.73 C2.07 8.43, 3.24 10.16, 6.79 12.88 C10.34 15.6, 18.42 21.02, 22.13 21.06 C25.84 21.09, 28.76 15.26, 29.06 13.1 C29.36 10.93, 24.68 9.54, 23.93 8.05 C23.18 6.56, 24.33 5.15, 24.57 4.16 C24.81 3.17, 25.25 2.45, 25.39 2.11 M0 0 C1.93 -0.69, 8.67 -3.2, 11.57 -4.17 C14.48 -5.13, 15.8 -5.07, 17.43 -5.8 C19.06 -6.52, 20.94 -7.06, 21.37 -8.51 C21.8 -9.97, 21.2 -12.5, 20.01 -14.52 C18.82 -16.54, 16.17 -19.38, 14.21 -20.66 C12.25 -21.94, 10.1 -22.4, 8.24 -22.2 C6.37 -21.99, 4.51 -21.57, 3.02 -19.43 C1.54 -17.28, -0.31 -13.35, -0.68 -9.33 C-1.04 -5.3, -0.42 1.03, 0.82 4.73 C2.07 8.43, 3.24 10.16, 6.79 12.88 C10.34 15.6, 18.42 21.02, 22.13 21.06 C25.84 21.09, 28.76 15.26, 29.06 13.1 C29.36 10.93, 24.68 9.54, 23.93 8.05 C23.18 6.56, 24.33 5.15, 24.57 4.16 C24.81 3.17, 25.25 2.45, 25.39 2.11" stroke="#20357c" stroke-width="4" fill="none"></path></g></g><mask></mask></svg></svg></g></g></svg></g><g id="dark-icon"><svg xmlns="http://www.w3.org/2000/svg" version="1.1" xmlns:xlink="http://www.w3.org/1999/xlink" xmlns:svgjs="http://svgjs.dev/svgjs" width="1000" height="1000"><g><g transform="matrix(3.729065960128281,0,0,3.729065960128281,0,4.039415461790213)"><svg xmlns="http://www.w3.org/2000/svg" version="1.1" xmlns:xlink="http://www.w3.org/1999/xlink" xmlns:svgjs="http://svgjs.dev/svgjs" width="268.1636663690442" height="265.9972174486013"><svg version="1.1" xmlns="http://www.w3.org/2000/svg" viewBox="0 0 134.0818331845221 132.99860872430065" width="268.1636663690442" height="265.9972174486013"><!-- svg-source:excalidraw --><metadata></metadata><defs><style class="style-fonts">
      </style></defs><g stroke-linecap="round" transform="translate(10 10) rotate(0 57.040916592261055 56.49930436215033)"><path d="M28.25 0 C43.82 0, 59.38 0, 85.83 0 C104.67 0, 114.08 9.42, 114.08 28.25 C114.08 47.32, 114.08 66.39, 114.08 84.75 C114.08 103.58, 104.67 113, 85.83 113 C63.92 113, 42 113, 28.25 113 C9.42 113, 0 103.58, 0 84.75 C0 65.93, 0 47.12, 0 28.25 C0 9.42, 9.42 0, 28.25 0" stroke="none" stroke-width="0" fill="#20357c"></path><path d="M28.25 0 C49.36 0, 70.46 0, 85.83 0 M28.25 0 C40.95 0, 53.65 0, 85.83 0 M85.83 0 C104.67 0, 114.08 9.42, 114.08 28.25 M85.83 0 C104.67 0, 114.08 9.42, 114.08 28.25 M114.08 28.25 C114.08 41.81, 114.08 55.37, 114.08 84.75 M114.08 28.25 C114.08 50.81, 114.08 73.36, 114.08 84.75 M114.08 84.75 C114.08 103.58, 104.67 113, 85.83 113 M114.08 84.75 C114.08 103.58, 104.67 113, 85.83 113 M85.83 113 C72.81 113, 59.78 113, 28.25 113 M85.83 113 C64.45 113, 43.06 113, 28.25 113 M28.25 113 C9.42 113, 0 103.58, 0 84.75 M28.25 113 C9.42 113, 0 103.58, 0 84.75 M0 84.75 C0 64.06, 0 43.37, 0 28.25 M0 84.75 C0 72.94, 0 61.13, 0 28.25 M0 28.25 C0 9.42, 9.42 0, 28.25 0 M0 28.25 C0 9.42, 9.42 0, 28.25 0" stroke="transparent" stroke-width="4" fill="none"></path></g><g stroke-linecap="round" transform="translate(81.34810327883542 47.86640838510841) rotate(47.18323930019426 0.796424357287151 1.5058615297808924)"><path d="M0.4 0 C0.59 0, 0.79 0, 1.19 0 C1.46 0, 1.59 0.13, 1.59 0.4 C1.59 1.18, 1.59 1.96, 1.59 2.61 C1.59 2.88, 1.46 3.01, 1.19 3.01 C1.02 3.01, 0.84 3.01, 0.4 3.01 C0.13 3.01, 0 2.88, 0 2.61 C0 1.89, 0 1.17, 0 0.4 C0 0.13, 0.13 0, 0.4 0" stroke="none" stroke-width="0" fill="#a3d4f4"></path><path d="M0.4 0 C0.68 0, 0.95 0, 1.19 0 M0.4 0 C0.58 0, 0.77 0, 1.19 0 M1.19 0 C1.46 0, 1.59 0.13, 1.59 0.4 M1.19 0 C1.46 0, 1.59 0.13, 1.59 0.4 M1.59 0.4 C1.59 1.17, 1.59 1.94, 1.59 2.61 M1.59 0.4 C1.59 1.06, 1.59 1.73, 1.59 2.61 M1.59 2.61 C1.59 2.88, 1.46 3.01, 1.19 3.01 M1.59 2.61 C1.59 2.88, 1.46 3.01, 1.19 3.01 M1.19 3.01 C1.01 3.01, 0.83 3.01, 0.4 3.01 M1.19 3.01 C1.02 3.01, 0.84 3.01, 0.4 3.01 M0.4 3.01 C0.13 3.01, 0 2.88, 0 2.61 M0.4 3.01 C0.13 3.01, 0 2.88, 0 2.61 M0 2.61 C0 1.77, 0 0.92, 0 0.4 M0 2.61 C0 2.06, 0 1.51, 0 0.4 M0 0.4 C0 0.13, 0.13 0, 0.4 0 M0 0.4 C0 0.13, 0.13 0, 0.4 0" stroke="#a3d4f4" stroke-width="1" fill="none"></path></g><g stroke-linecap="round" transform="translate(78.74158098033467 65.51500284684228) rotate(116.16078644170506 0.9540749057982794 1.5058615297808933)"><path d="M0.48 0 C0.78 0, 1.08 0, 1.43 0 C1.75 0, 1.91 0.16, 1.91 0.48 C1.91 1.15, 1.91 1.82, 1.91 2.53 C1.91 2.85, 1.75 3.01, 1.43 3.01 C1.06 3.01, 0.69 3.01, 0.48 3.01 C0.16 3.01, 0 2.85, 0 2.53 C0 1.77, 0 1, 0 0.48 C0 0.16, 0.16 0, 0.48 0" stroke="none" stroke-width="0" fill="#a3d4f4"></path><path d="M0.48 0 C0.84 0, 1.2 0, 1.43 0 M0.48 0 C0.85 0, 1.21 0, 1.43 0 M1.43 0 C1.75 0, 1.91 0.16, 1.91 0.48 M1.43 0 C1.75 0, 1.91 0.16, 1.91 0.48 M1.91 0.48 C1.91 1, 1.91 1.53, 1.91 2.53 M1.91 0.48 C1.91 1.01, 1.91 1.55, 1.91 2.53 M1.91 2.53 C1.91 2.85, 1.75 3.01, 1.43 3.01 M1.91 2.53 C1.91 2.85, 1.75 3.01, 1.43 3.01 M1.43 3.01 C1.11 3.01, 0.79 3.01, 0.48 3.01 M1.43 3.01 C1.1 3.01, 0.78 3.01, 0.48 3.01 M0.48 3.01 C0.16 3.01, 0 2.85, 0 2.53 M0.48 3.01 C0.16 3.01, 0 2.85, 0 2.53 M0 2.53 C0 2.1, 0 1.66, 0 0.48 M0 2.53 C0 1.78, 0 1.02, 0 0.48 M0 0.48 C0 0.16, 0.16 0, 0.48 0 M0 0.48 C0 0.16, 0.16 0, 0.48 0" stroke="#a3d4f4" stroke-width="1" fill="none"></path></g><g stroke-linecap="round" transform="translate(83.67586127720733 87.40843698549912) rotate(133.4246250736536 1.0738263991190706 1.5058615297808933)"><path d="M0.54 0 C0.75 0, 0.97 0, 1.61 0 C1.97 0, 2.15 0.18, 2.15 0.54 C2.15 1.25, 2.15 1.97, 2.15 2.47 C2.15 2.83, 1.97 3.01, 1.61 3.01 C1.2 3.01, 0.79 3.01, 0.54 3.01 C0.18 3.01, 0 2.83, 0 2.47 C0 2.02, 0 1.57, 0 0.54 C0 0.18, 0.18 0, 0.54 0" stroke="none" stroke-width="0" fill="#a3d4f4"></path><path d="M0.54 0 C0.83 0, 1.12 0, 1.61 0 M0.54 0 C0.8 0, 1.07 0, 1.61 0 M1.61 0 C1.97 0, 2.15 0.18, 2.15 0.54 M1.61 0 C1.97 0, 2.15 0.18, 2.15 0.54 M2.15 0.54 C2.15 1.24, 2.15 1.93, 2.15 2.47 M2.15 0.54 C2.15 1.17, 2.15 1.8, 2.15 2.47 M2.15 2.47 C2.15 2.83, 1.97 3.01, 1.61 3.01 M2.15 2.47 C2.15 2.83, 1.97 3.01, 1.61 3.01 M1.61 3.01 C1.35 3.01, 1.08 3.01, 0.54 3.01 M1.61 3.01 C1.39 3.01, 1.17 3.01, 0.54 3.01 M0.54 3.01 C0.18 3.01, 0 2.83, 0 2.47 M0.54 3.01 C0.18 3.01, 0 2.83, 0 2.47 M0 2.47 C0 1.99, 0 1.51, 0 0.54 M0 2.47 C0 2.03, 0 1.58, 0 0.54 M0 0.54 C0 0.18, 0.18 0, 0.54 0 M0 0.54 C0 0.18, 0.18 0, 0.54 0" stroke="#a3d4f4" stroke-width="1" fill="none"></path></g><g stroke-linecap="round" transform="translate(75.38555387265023 55.998424401016024) rotate(68.7047486594876 0.796424357287151 2.53069722621726)"><path d="M0.4 0 C0.6 0, 0.8 0, 1.19 0 C1.46 0, 1.59 0.13, 1.59 0.4 C1.59 1.99, 1.59 3.57, 1.59 4.66 C1.59 4.93, 1.46 5.06, 1.19 5.06 C0.94 5.06, 0.68 5.06, 0.4 5.06 C0.13 5.06, 0 4.93, 0 4.66 C0 3.07, 0 1.49, 0 0.4 C0 0.13, 0.13 0, 0.4 0" stroke="none" stroke-width="0" fill="#e8ecf7"></path><path d="M0.4 0 C0.63 0, 0.86 0, 1.19 0 M0.4 0 C0.67 0, 0.94 0, 1.19 0 M1.19 0 C1.46 0, 1.59 0.13, 1.59 0.4 M1.19 0 C1.46 0, 1.59 0.13, 1.59 0.4 M1.59 0.4 C1.59 1.62, 1.59 2.85, 1.59 4.66 M1.59 0.4 C1.59 1.93, 1.59 3.45, 1.59 4.66 M1.59 4.66 C1.59 4.93, 1.46 5.06, 1.19 5.06 M1.59 4.66 C1.59 4.93, 1.46 5.06, 1.19 5.06 M1.19 5.06 C0.97 5.06, 0.75 5.06, 0.4 5.06 M1.19 5.06 C0.95 5.06, 0.71 5.06, 0.4 5.06 M0.4 5.06 C0.13 5.06, 0 4.93, 0 4.66 M0.4 5.06 C0.13 5.06, 0 4.93, 0 4.66 M0 4.66 C0 3.63, 0 2.59, 0 0.4 M0 4.66 C0 3.47, 0 2.27, 0 0.4 M0 0.4 C0 0.13, 0.13 0, 0.4 0 M0 0.4 C0 0.13, 0.13 0, 0.4 0" stroke="#a3d4f4" stroke-width="1" fill="none"></path></g><g stroke-linecap="round" transform="translate(75.8493432075029 52.15460930565695) rotate(337.2175942695135 0.796424357287151 3.0348018658318043)"><path d="M0.4 0 C0.59 0, 0.78 0, 1.19 0 C1.46 0, 1.59 0.13, 1.59 0.4 C1.59 2.25, 1.59 4.09, 1.59 5.67 C1.59 5.94, 1.46 6.07, 1.19 6.07 C0.96 6.07, 0.72 6.07, 0.4 6.07 C0.13 6.07, 0 5.94, 0 5.67 C0 3.6, 0 1.53, 0 0.4 C0 0.13, 0.13 0, 0.4 0" stroke="none" stroke-width="0" fill="#a3d4f4"></path><path d="M0.4 0 C0.63 0, 0.86 0, 1.19 0 M0.4 0 C0.61 0, 0.83 0, 1.19 0 M1.19 0 C1.46 0, 1.59 0.13, 1.59 0.4 M1.19 0 C1.46 0, 1.59 0.13, 1.59 0.4 M1.59 0.4 C1.59 1.79, 1.59 3.17, 1.59 5.67 M1.59 0.4 C1.59 2.49, 1.59 4.59, 1.59 5.67 M1.59 5.67 C1.59 5.94, 1.46 6.07, 1.19 6.07 M1.59 5.67 C1.59 5.94, 1.46 6.07, 1.19 6.07 M1.19 6.07 C0.99 6.07, 0.78 6.07, 0.4 6.07 M1.19 6.07 C0.94 6.07, 0.69 6.07, 0.4 6.07 M0.4 6.07 C0.13 6.07, 0 5.94, 0 5.67 M0.4 6.07 C0.13 6.07, 0 5.94, 0 5.67 M0 5.67 C0 4.62, 0 3.56, 0 0.4 M0 5.67 C0 3.94, 0 2.2, 0 0.4 M0 0.4 C0 0.13, 0.13 0, 0.4 0 M0 0.4 C0 0.13, 0.13 0, 0.4 0" stroke="#a3d4f4" stroke-width="1" fill="none"></path></g><g stroke-linecap="round"><g transform="translate(81.59752180630494 48.82387249698276) rotate(0 -15.87549333326001 17.662464219790596)"><path d="M0 0 C-1.89 -1.82, -7.76 -8.85, -11.35 -10.92 C-14.94 -12.99, -18.4 -13.15, -21.54 -12.43 C-24.67 -11.7, -27.96 -9.5, -30.14 -6.58 C-32.31 -3.65, -33.88 0.92, -34.59 5.13 C-35.3 9.33, -35.4 14.21, -34.41 18.64 C-33.42 23.07, -31.57 28.1, -28.67 31.73 C-25.78 35.36, -20 38.22, -17.06 40.43 C-14.12 42.64, -13.08 43.79, -11.04 45.01 C-9 46.23, -7.11 48.51, -4.79 47.75 C-2.48 46.99, 1.57 41.65, 2.84 40.43 M0 0 C-1.89 -1.82, -7.76 -8.85, -11.35 -10.92 C-14.94 -12.99, -18.4 -13.15, -21.54 -12.43 C-24.67 -11.7, -27.96 -9.5, -30.14 -6.58 C-32.31 -3.65, -33.88 0.92, -34.59 5.13 C-35.3 9.33, -35.4 14.21, -34.41 18.64 C-33.42 23.07, -31.57 28.1, -28.67 31.73 C-25.78 35.36, -20 38.22, -17.06 40.43 C-14.12 42.64, -13.08 43.79, -11.04 45.01 C-9 46.23, -7.11 48.51, -4.79 47.75 C-2.48 46.99, 1.57 41.65, 2.84 40.43" stroke="#a3d4f4" stroke-width="4" fill="none"></path></g></g><mask></mask><g stroke-linecap="round"><g transform="translate(54.015596654455294 65.52281175421143) rotate(0 14.190132223924593 -0.5705284780372466)"><path d="M0 0 C1.93 -0.69, 8.67 -3.2, 11.57 -4.17 C14.48 -5.13, 15.8 -5.07, 17.43 -5.8 C19.06 -6.52, 20.94 -7.06, 21.37 -8.51 C21.8 -9.97, 21.2 -12.5, 20.01 -14.52 C18.82 -16.54, 16.17 -19.38, 14.21 -20.66 C12.25 -21.94, 10.1 -22.4, 8.24 -22.2 C6.37 -21.99, 4.51 -21.57, 3.02 -19.43 C1.54 -17.28, -0.31 -13.35, -0.68 -9.33 C-1.04 -5.3, -0.42 1.03, 0.82 4.73 C2.07 8.43, 3.24 10.16, 6.79 12.88 C10.34 15.6, 18.42 21.02, 22.13 21.06 C25.84 21.09, 28.76 15.26, 29.06 13.1 C29.36 10.93, 24.68 9.54, 23.93 8.05 C23.18 6.56, 24.33 5.15, 24.57 4.16 C24.81 3.17, 25.25 2.45, 25.39 2.11 M0 0 C1.93 -0.69, 8.67 -3.2, 11.57 -4.17 C14.48 -5.13, 15.8 -5.07, 17.43 -5.8 C19.06 -6.52, 20.94 -7.06, 21.37 -8.51 C21.8 -9.97, 21.2 -12.5, 20.01 -14.52 C18.82 -16.54, 16.17 -19.38, 14.21 -20.66 C12.25 -21.94, 10.1 -22.4, 8.24 -22.2 C6.37 -21.99, 4.51 -21.57, 3.02 -19.43 C1.54 -17.28, -0.31 -13.35, -0.68 -9.33 C-1.04 -5.3, -0.42 1.03, 0.82 4.73 C2.07 8.43, 3.24 10.16, 6.79 12.88 C10.34 15.6, 18.42 21.02, 22.13 21.06 C25.84 21.09, 28.76 15.26, 29.06 13.1 C29.36 10.93, 24.68 9.54, 23.93 8.05 C23.18 6.56, 24.33 5.15, 24.57 4.16 C24.81 3.17, 25.25 2.45, 25.39 2.11" stroke="#a3d4f4" stroke-width="4" fill="none"></path></g></g><mask></mask></svg></svg></g></g></svg></g></svg>